<svg xmlns="http://www.w3.org/2000/svg" viewBox="0 0 275.8 100" width="275.8" height="100"><path d="M92 56 C92 36 78 24 56 24 C40 24 31 31 28 42 C27 37 26 31 25 26 C26 21 28 15 31 10 C24 10 17 15 15 22 C11 17 3 17 1 24 C0 31 6 37 13 38 C17 44 21 51 25 58 C32 72 50 78 68 77 C84 75 92 68 92 56 Z" fill="#ffffff"/><circle cx="76" cy="44" r="3.9" fill="#0b1220"/><path d="M90.3 56.5 A7 6 0 0 1 80.5 59.2" fill="none" stroke="#0b1220" stroke-width="1.8" stroke-linecap="round"/><circle cx="59" cy="15" r="3.0" fill="#5cb08a"/><circle cx="52" cy="8" r="4.2" fill="#5cb08a"/><circle cx="66" cy="7" r="4.2" fill="#5cb08a"/><path d="M126.4 78.0 112.1 28.8H130.7L138.6 64.6L133.1 64.7L143.4 28.8H161.9L172.3 64.7L166.7 64.6L174.8 28.8H193.4L179.1 78.0H160.4L150.8 44.0H154.8L144.9 78.0Z M216.2 79.0Q209.3 79.0 204.0 75.7Q198.7 72.4 195.7 66.7Q192.7 60.9 192.7 53.4Q192.7 45.9 195.7 40.1Q198.7 34.3 204.0 31.0Q209.3 27.8 216.2 27.8Q220.5 27.8 224.2 29.2Q227.8 30.7 230.2 33.3Q232.7 35.9 233.4 39.3V67.5Q232.7 70.9 230.2 73.5Q227.8 76.1 224.2 77.5Q220.5 79.0 216.2 79.0ZM220.6 61.8Q224.3 61.8 226.6 59.4Q228.8 57.1 228.8 53.4Q228.8 50.9 227.8 49.0Q226.8 47.2 224.9 46.1Q223.1 45.0 220.7 45.0Q218.3 45.0 216.4 46.1Q214.6 47.2 213.5 49.1Q212.4 51.0 212.4 53.4Q212.4 55.8 213.4 57.7Q214.5 59.6 216.4 60.7Q218.3 61.8 220.6 61.8ZM228.2 78.0V64.8L230.9 52.8L228.2 40.9V28.8H247.3V78.0Z M254.2 78.0V28.8H273.8V78.0Z" fill="#ffffff"/><circle cx="264.0" cy="15.3" r="8" fill="#5cb08a"/></svg>